<?xml version="1.0" standalone="yes"?>
<svg xmlns="http://www.w3.org/2000/svg" width="576" height="576">
<path style="fill:#2174b9; stroke:none;" d="M0 297C7.28811 290.46 12.6587 279.712 17 271C18.6623 267.664 21.1187 260.897 25.2235 259.933C31.1279 258.547 37.598 270.725 43 272.911C53.1912 277.034 65.42 267.004 73 261.367C84.3027 252.961 94.3198 243.018 104.118 232.94C107.056 229.918 112.189 222.599 117 223.13C123.017 223.794 127.952 233.001 132.059 236.776C146.343 249.902 156.389 267.906 177 272C170.194 283.148 151.525 268.83 145 262.875C137.458 255.992 124.626 233.313 113 235.384C104.765 236.851 97.68 247.48 92 252.972C88.0174 256.823 82.0174 259.725 80 265C88.9166 264.533 102.699 257.734 110.997 260.855C116.944 263.092 119.594 269.886 125.003 272.983C128.737 275.121 133.064 273.592 137 275.344C147.424 279.984 154.974 286.633 167 287C158.215 304.997 141.531 327.052 125.99 339.702C121.732 343.168 115.475 340.673 112.058 343.777C106.876 348.483 103.548 359.807 100 366C92.5954 378.924 82.5822 389.648 75 402C99.2752 398.998 99.1661 370.23 114.063 357.216C119.77 352.229 128.029 353.822 133.973 348.73C157.471 328.599 172.57 297.915 191.792 274.064C197.111 267.465 204.89 270.176 210.94 264.762C221.697 255.136 228.395 239.907 236.333 228C246.812 212.282 257.381 196.042 265.604 179C268.051 173.928 272.009 161.313 278.095 159.697C283.979 158.136 287.909 172.388 291.376 175.616C294.661 178.674 299.37 179.139 302.667 182.287C314.722 193.798 324.432 210.898 335.003 224C344.243 235.452 361.488 244.913 368.52 257.06C377.434 272.459 376.852 289.428 389.333 304C406.361 323.882 429.249 337.594 446.803 357C464.555 376.625 475.74 401.496 500.984 413.124C502.544 413.842 507.164 414.669 505.067 411.445C498.118 400.766 483.046 393.63 474.919 383C454.297 356.025 441.597 319.93 409 304L409 302C428.251 295.401 446.025 267.286 453 249C461.943 257.016 473.246 254.446 481.997 261.352C491.642 268.964 494.437 281.55 503.125 289.844C510.091 296.493 516.991 289.784 523.937 293.832C533.486 299.396 537.788 313.468 547 320.34C556.233 327.227 565.557 324.564 576 327C576 322.172 577.506 314.104 573.588 310.451C569.432 306.576 560.965 311.369 555 307.444C544.575 300.585 536.753 282.658 525.972 278.295C517.346 274.804 512.357 285.583 503.07 276.847C495.584 269.805 492.623 258.707 483.989 252.73C478.242 248.751 470.998 251.069 465.003 247.878C460.135 245.286 456.5 237.706 449.999 239.781C435.924 244.275 424.274 270.643 413.997 281C410.577 284.446 403.713 294.056 398.01 291.203C380.328 282.353 387.454 262.078 379.538 249.06C372.699 237.811 356.182 234.435 347.06 224.989C330.404 207.743 323.243 179.411 304.793 164.416C301.541 161.773 297.516 163.351 294.287 161.168C287.096 156.307 291.24 139.026 281.875 136.933C273.624 135.089 263.041 158.177 259.716 164C247.754 184.952 236.405 206.315 224 227C218.398 236.341 212.637 248.303 203 254.155C198.972 256.6 195.133 254.519 191.028 255.832C186.967 257.131 185.295 262.687 180.875 262.875C171.33 263.28 161.501 250.762 156.649 244C149.883 234.569 140.125 229.044 132 220.997C127.312 216.354 121.872 209.627 115 208.364C107.363 206.961 102.13 214.75 98.1326 220.001C88.4522 232.715 78.7014 246.245 66 256.16C46.3052 271.533 45.1542 248.338 28 246.309C20.5016 245.422 16.6873 252.534 13.4001 258C4.99458 271.976 0 280.529 0 297M355 272C351.696 241.064 318.333 221.06 298.011 201.885C292.631 196.809 287.003 181.205 278.984 180.677C272.94 180.28 262.389 198.756 264.054 203.94C266.13 210.408 276.346 214.577 282 217.127C296.715 223.763 310.33 229.238 323 239.624C333.967 248.614 343.116 265.36 355 272M169 326C183.188 322.817 190.256 311.611 202 304.273C211.261 298.487 221.594 297.667 229.99 289.875C234.337 285.84 242.915 267.667 248.226 267.103C253.792 266.512 259.797 277.265 262.624 281C270.98 292.041 279.222 301.913 294 302C290.492 295.219 283.094 291.979 278.458 285.997C274.333 280.674 274.049 273.927 271.216 268C266.845 258.857 256.191 252.392 258.893 241C260.011 236.29 263.217 232.448 265 228C251.751 228.482 242.556 240.896 235.676 251C229.364 260.271 223.736 271.529 214.99 278.781C210.904 282.168 206.209 280.001 202.259 282.744C197.53 286.029 194.547 293.355 191.267 298C184.864 307.069 172.365 315.51 169 326M455 261C455.449 275.643 461.509 282.889 456 298C462.766 297.066 466.916 292.701 468 286C473.346 291.654 474.066 300.596 481.031 304.912C489.015 309.86 499.059 307.541 506.999 313.586C520.05 323.521 524.693 336.989 543 337C538.219 332.398 531.841 330.008 527.368 324.937C521.262 318.015 518.154 308.536 510.882 302.588C503.517 296.564 493.342 296.855 486.502 289.667C474.955 277.531 474.896 261.041 455 261M0 330C17.0916 319.084 26.8781 294 48 294C47.1846 285.617 34.4347 270.303 25.3791 278.413C21.0623 282.279 20.1485 289.148 17.1713 294C9.3683 306.716 0.000281348 314.413 0 330M355 299C358.458 317.602 372.067 325.36 379.763 341C386.333 354.352 383.319 369.332 392.795 382C397.185 387.869 410.52 402.04 419.487 397.266C423.243 395.266 416.361 390.66 414.996 389.508C409.596 384.955 384.208 356.49 405.001 354.498C419.243 353.134 429.399 370.47 436.498 380C445.022 391.442 456.064 398.381 470 401C465.088 391.734 454.202 384.849 447.207 377C435.151 363.473 427.802 347.71 412 337.709C390.119 323.861 371.234 323.305 357 299L355 299M576 347C576 344.139 576.395 340.849 575.588 338.073C570.696 321.25 544.738 345.575 567 346.936C569.986 347.119 573.009 347 576 347M27 339C24.5871 351.359 24.4221 369.006 16 379C15.492 369.295 13.133 359.732 13 350L11 350C10.7492 358.8 9.98451 373.213 4 380L1 366C-1.61326 372.993 0 382.572 0 390C20.1535 390 39.0464 391.354 59 394C57.1935 389.3 52.5857 388.542 49.7069 384.734C46.7428 380.812 47.0269 374.668 47 370L44 370C43.6705 373.931 42.2042 377.276 41 381C38.4005 375.269 39 369.178 39 363L37 363C36.3201 368.845 33.6799 374.155 33 380L31 380C30.8121 366.252 27.9816 352.843 29 339L27 339M539 358C540.774 367.775 537.56 376.363 537 386C534.53 380.899 533.173 375.669 533 370C528.196 374.112 528.082 384.026 528 390C522.827 390.481 517.806 391.297 514 395C534.844 394.988 555.131 394.406 576 395L576 376C573.59 379.726 572.101 383.758 569 387C568.176 382.876 567.067 379.629 563 378C562.666 380.843 561.968 383.305 561 386C558.454 381.98 557.719 375.653 553 374C552.228 377.674 551.348 381.257 551 385C543.466 377.903 546.591 363.941 539 358M156 362C156.037 380.023 158.125 395.799 151 413C148.053 406.584 150.496 394.065 145 390C143.974 397.822 143.145 405.705 140 413C138.307 408.499 137.049 403.867 133 401C132.052 405.843 130.959 410.457 129 415C124.674 404.607 129.996 379.869 122 373C121.991 388.016 118.322 402.193 117 417C112.657 412.437 113.915 406.264 111 401C107.928 406.519 108.205 414.979 102.604 418.965C96.2955 423.455 82.5678 422.165 75 423.055C50.2047 425.973 24.9581 429 0 429L0 435C63.4964 434.992 126.587 424.908 190 423.027C245.181 421.39 300.083 426.989 355 430.885C405.593 434.475 455.796 437.156 506 444C501.702 432.041 473.614 434.634 463 433.951C437.262 432.295 411.535 427.754 386 424.312C369.889 422.14 351.66 422.405 336.038 417.98C324.862 414.815 328.71 394.813 319 389C318.89 397.075 317.544 405.093 316 413L314 413C312.509 409.56 311.209 407.01 308 405C307.155 407.683 306.392 410.215 306 413C297.663 403.115 298.817 395.634 291 412C288.251 407.053 286.809 401.589 286 396C281.501 397.316 280.466 404.819 279 409C274.44 400.3 278.865 373.457 269 370C269 384.296 269.042 396.44 264 410L262 410C260.557 403.152 260.002 390.119 254 386C253.398 397.364 252.098 411.855 239 405L238 409C236.125 404.957 234.939 401.344 231 399C230.861 403.044 230.496 408.438 226.658 410.85C223.516 412.825 218.536 412 215 412C206.229 412 189.047 416.526 181.376 411.85C175.466 408.248 176.764 399.712 171 396C170.254 401.627 169.863 407.618 166 412C163.668 396.057 162.297 377.469 158 362L156 362z"/>
</svg>
