<svg width="576" height="305" viewBox="0 0 576 305" fill="none" xmlns="http://www.w3.org/2000/svg">
<path d="M-0.000868817 159.346C7.27742 152.874 12.6408 142.237 16.9762 133.615C18.6363 130.313 21.0894 123.616 25.1887 122.662C31.0851 121.29 37.5465 133.343 42.9412 135.506C53.1187 139.586 65.331 129.66 72.9008 124.081C84.1883 115.762 94.1919 105.922 103.977 95.9477C106.911 92.9569 112.037 85.7135 116.842 86.239C122.85 86.8961 127.779 96.008 131.88 99.7441C146.145 112.735 156.177 130.553 176.761 134.604C169.964 145.637 151.32 131.467 144.804 125.574C137.272 118.762 124.457 96.3168 112.847 98.3664C104.623 99.8183 97.5475 110.338 91.8752 115.773C87.898 119.584 81.906 122.456 79.8914 127.677C88.7959 127.214 102.56 120.486 110.847 123.574C116.786 125.788 119.432 132.512 124.834 135.577C128.563 137.693 132.884 136.18 136.815 137.914C147.225 142.506 154.764 149.086 166.774 149.45C158.001 167.261 141.339 189.088 125.819 201.607C121.567 205.038 115.319 202.568 111.906 205.64C106.731 210.298 103.408 221.505 99.8644 227.634C92.4698 240.424 82.4701 251.038 74.8981 263.262C99.1406 260.291 99.0316 231.82 113.908 218.941C119.608 214.005 127.856 215.582 133.792 210.542C157.258 190.619 172.337 160.252 191.533 136.647C196.845 130.116 204.613 132.799 210.655 127.441C221.397 117.914 228.086 102.843 236.014 91.0587C246.479 75.503 257.033 59.4306 265.245 42.5646C267.689 37.545 271.642 25.0602 277.719 23.4609C283.596 21.916 287.52 36.0209 290.983 39.2155C294.263 42.242 298.966 42.7022 302.258 45.8177C314.297 57.2098 323.994 74.1333 334.551 87.1C343.778 98.4337 361 107.797 368.023 119.819C376.925 135.059 376.343 151.852 388.808 166.274C405.813 185.951 428.67 199.521 446.2 218.727C463.928 238.149 475.098 262.763 500.308 274.271C501.866 274.982 506.48 275.8 504.386 272.61C497.446 262.041 482.394 254.979 474.278 244.458C453.684 217.762 441.001 182.04 408.448 166.274V164.295C427.673 157.764 445.423 129.939 452.389 111.842C461.32 119.775 472.608 117.232 481.347 124.066C490.979 131.6 493.77 144.056 502.446 152.264C509.403 158.844 516.294 152.205 523.23 156.211C532.766 161.718 537.063 175.644 546.262 182.445C555.483 189.261 564.794 186.626 575.223 189.037C575.223 184.258 576.727 176.274 572.814 172.658C568.664 168.823 560.208 173.567 554.251 169.682C543.841 162.894 536.029 145.152 525.263 140.834C516.648 137.379 511.666 148.047 502.391 139.401C494.916 132.432 491.959 121.449 483.336 115.533C477.597 111.595 470.363 113.89 464.376 110.731C459.514 108.166 455.884 100.664 449.392 102.718C435.336 107.166 423.702 133.261 413.438 143.511C410.023 146.922 403.168 156.433 397.473 153.609C379.815 144.85 386.931 124.785 379.026 111.901C372.196 100.768 355.701 97.4272 346.592 88.0788C329.958 71.0108 322.807 42.9714 304.382 28.1312C301.134 25.5155 297.114 27.0772 293.89 24.9167C286.708 20.1059 290.847 3.00333 281.494 0.931941C273.255 -0.89302 262.686 21.9566 259.365 27.7195C247.419 48.4551 236.086 69.5976 223.697 90.069C218.103 99.3136 212.35 111.152 202.726 116.944C198.703 119.363 194.869 117.304 190.77 118.603C186.714 119.889 185.045 125.388 180.63 125.574C171.098 125.974 161.283 113.586 156.437 106.893C149.68 97.5599 139.935 92.0919 131.821 84.128C127.14 79.5329 121.707 72.8754 114.844 71.6254C107.217 70.2369 101.992 77.9455 97.9995 83.1423C88.3322 95.725 78.5945 109.115 65.9102 118.928C46.242 134.142 45.0925 111.187 27.9614 109.179C20.4731 108.301 16.664 115.339 13.3812 120.749C4.98698 134.581 -0.000868817 143.045 -0.000868817 159.346ZM354.521 134.604C351.221 103.988 317.903 84.1903 297.609 65.2133C292.236 60.1897 286.616 44.7468 278.607 44.2243C272.571 43.8314 262.035 62.1166 263.697 67.2471C265.771 73.6483 275.973 77.7743 281.619 80.2979C296.314 86.8654 309.911 92.2839 322.564 102.563C333.516 111.46 342.653 128.033 354.521 134.604ZM168.771 188.047C182.94 184.897 189.999 173.806 201.727 166.544C210.976 160.818 221.295 160.006 229.679 152.295C234.02 148.301 242.587 130.316 247.891 129.758C253.449 129.173 259.446 139.815 262.269 143.511C270.614 154.438 278.845 164.209 293.603 164.295C290.1 157.584 282.712 154.377 278.082 148.457C273.963 143.189 273.679 136.511 270.85 130.646C266.485 121.597 255.845 115.199 258.543 103.924C259.66 99.2631 262.862 95.4608 264.642 91.0587C251.411 91.5357 242.228 103.822 235.358 113.821C229.054 122.996 223.434 134.138 214.7 141.315C210.619 144.667 205.93 142.523 201.986 145.237C197.263 148.489 194.284 155.739 191.008 160.336C184.614 169.311 172.132 177.665 168.771 188.047ZM454.386 123.718C454.835 138.21 460.886 145.381 455.385 160.336C462.142 159.412 466.286 155.092 467.369 148.46C472.707 154.055 473.427 162.905 480.382 167.177C488.355 172.073 498.386 169.778 506.315 175.761C519.349 185.593 523.985 198.922 542.268 198.933C537.493 194.379 531.124 192.013 526.657 186.995C520.559 180.144 517.455 170.763 510.193 164.877C502.838 158.915 492.677 159.203 485.846 152.089C474.314 140.078 474.255 123.759 454.386 123.718ZM-0.000868817 192.006C17.0677 181.202 26.841 156.377 47.9345 156.377C47.1202 148.081 34.3874 132.925 25.344 140.951C21.0331 144.777 20.1205 151.575 17.1473 156.377C9.35481 168.962 -0.000587848 176.579 -0.000868817 192.006ZM354.521 161.326C357.974 179.736 371.565 187.413 379.251 202.892C385.812 216.106 382.802 230.931 392.265 243.469C396.649 249.277 409.966 263.302 418.921 258.577C422.672 256.598 415.799 252.039 414.436 250.899C409.043 246.393 383.69 218.222 404.455 216.251C418.677 214.901 428.82 232.058 435.909 241.489C444.422 252.813 455.449 259.681 469.366 262.272C464.461 253.102 453.589 246.288 446.604 238.52C434.564 225.133 427.225 209.533 411.444 199.635C389.593 185.93 370.733 185.38 356.518 161.326H354.521ZM575.223 208.83C575.223 205.999 575.618 202.743 574.812 199.995C569.926 183.346 544.003 207.42 566.235 208.767C569.217 208.948 572.236 208.83 575.223 208.83ZM26.9628 200.913C24.5531 213.144 24.3883 230.609 15.9776 240.5C15.4703 230.895 13.1144 221.431 12.9816 211.799H10.9843C10.7339 220.508 9.97019 234.772 3.99374 241.489L0.997784 227.634C-1.61196 234.555 -0.000868817 244.035 -0.000868817 251.386C20.1255 251.386 38.9929 252.726 58.9197 255.345C57.1156 250.693 52.514 249.943 49.6391 246.174C46.679 242.293 46.9627 236.212 46.9358 231.593H43.9399C43.6108 235.483 42.1465 238.793 40.9439 242.479C38.3479 236.807 38.9466 230.779 38.9466 224.665H36.9493C36.2703 230.449 33.6337 235.705 32.9547 241.489H30.9574C30.7697 227.883 27.943 214.613 28.9601 200.913H26.9628ZM538.273 219.716C540.045 229.391 536.835 237.89 536.276 247.427C533.809 242.379 532.454 237.203 532.281 231.593C527.484 235.662 527.37 245.474 527.288 251.386C522.122 251.862 517.108 252.67 513.307 256.334C534.123 256.323 554.382 255.747 575.223 256.334V237.531C572.816 241.218 571.329 245.208 568.233 248.417C567.41 244.336 566.302 241.122 562.241 239.51C561.907 242.324 561.21 244.76 560.243 247.427C557.701 243.449 556.967 237.187 552.254 235.551C551.483 239.187 550.604 242.733 550.257 246.438C542.733 239.414 545.854 225.596 538.273 219.716ZM155.789 223.675C155.826 241.512 157.911 257.125 150.796 274.149C147.853 267.799 150.292 255.409 144.804 251.386C143.779 259.127 142.951 266.929 139.811 274.149C138.12 269.694 136.864 265.11 132.82 262.272C131.873 267.065 130.782 271.632 128.825 276.128C124.505 265.842 129.82 241.36 121.835 234.562C121.826 249.423 118.162 263.453 116.842 278.107C112.504 273.591 113.761 267.482 110.85 262.272C107.782 267.734 108.058 276.107 102.465 280.052C96.1649 284.496 82.4557 283.219 74.8981 284.1C50.1362 286.988 24.9236 289.983 -0.000868817 289.983V295.921C63.41 295.914 126.416 285.934 189.743 284.072C244.85 282.452 299.678 287.993 354.521 291.849C405.046 295.402 455.181 298.055 505.317 304.828C501.025 292.993 472.975 295.559 462.375 294.883C436.672 293.244 410.98 288.75 385.479 285.344C369.39 283.194 351.185 283.456 335.584 279.077C324.423 275.945 328.266 256.149 318.569 250.396C318.46 258.388 317.115 266.323 315.573 274.149H313.576C312.087 270.744 310.789 268.22 307.584 266.231C306.74 268.886 305.978 271.392 305.587 274.149C297.261 264.366 298.414 256.962 290.607 273.159C287.862 268.263 286.422 262.855 285.614 257.324C281.121 258.627 280.087 266.052 278.623 270.19C274.069 261.58 278.488 235.014 268.637 231.593C268.637 245.741 268.679 257.76 263.643 271.18H261.646C260.205 264.402 259.651 251.504 253.657 247.427C253.056 258.674 251.758 273.015 238.677 266.231L237.679 270.19C235.806 266.189 234.622 262.613 230.688 260.293C230.549 264.295 230.185 269.634 226.352 272.021C223.214 273.975 218.241 273.159 214.71 273.159C205.95 273.159 188.791 277.638 181.131 273.01C175.229 269.446 176.525 260.998 170.769 257.324C170.024 262.893 169.633 268.822 165.776 273.159C163.447 257.381 162.078 238.984 157.786 223.675H155.789Z" fill="#2174B9"/>
</svg>
